<?xml version="1.0" encoding="UTF-8"?>
<svg width="24px" height="24px" viewBox="0 0 24 24" version="1.1" xmlns="http://www.w3.org/2000/svg">
    <path d="M12,9 C10.343,9 9,10.343 9,12 C9,13.657 10.343,15 12,15 C13.657,15 15,13.657 15,12 C15,10.343 13.657,9 12,9 M12,17 C9.239,17 7,14.761 7,12 C7,9.239 9.239,7 12,7 C14.761,7 17,9.239 17,12 C17,14.761 14.761,17 12,17 M12,4.5 C7,4.5 2.73,7.61 1,12 C2.73,16.39 7,19.5 12,19.5 C17,19.5 21.27,16.39 23,12 C21.27,7.61 17,4.5 12,4.5" fill="currentColor"/>
</svg>
